La obra cumbre del cine chusco (The masterpiece of earthy films)

IMDB rating: 5.1/10 (from 903 users)

SOURCE: Torrente.4.Lethal.Crisis.2011.BluRay.720p.x264.DTS.RoSubbed-HDChina

SAMPLE INCLUDED: 60s/10.4mb



CAST:

Santiago Segura..............Torrente
Carlos Areces................Músico boda
Goyo Jiménez.................Jefe Seguridad Rocamora
Javier Gutiérrez.............Solís
Ernesto Sevilla..............Camarero boda
Maria Lapiedra...............Melanie Rocamora
Francisco....................Rocamora (as Francisco González)
Tomás Pozzi..................Paparazzi boda
Fernando Esteso..............Cuadrado
Kiko Rivera..................Julito Rin Rin
Dolores González.............Suegra Dominguero
Sílvia Abril.................Encarni - Señora Dominguero
César Vallejos...............Manolito - Niño Dominguero
Carmen de Mairena............Vieja de las bolsas
Luis Carlos Huapaya..........Pacheco (as Luis Carlos Huapaya 'Luchito') 

General
*******
Format                                   : Matroska
Format version                           : Version 2
File size                                : 998 MiB
Duration                                 : 1h 36mn
Overall bit rate                         : 1 445 Kbps
Encoded date                             : UTC 2011-10-14 04:53:33
Writing application                      : mkvmerge v5.0.0 ('Die Wahre Liebe') built on Sep 25 2011 20:33:49
Writing library                          : libebml v1.2.2 + libmatroska v1.3.0

Video
*****
ID                                       : 1
Format                                   : AVC
Format/Info                              : Advanced Video Codec
Format profile                           : Main@L3.0
Format settings, CABAC                   : Yes
Format settings, ReFrames                : 4 frames
Muxing mode                              : Header stripping
Codec ID                                 : V_MPEG4/ISO/AVC
Duration                                 : 1h 36mn
Bit rate                                 : 1 060 Kbps
Width                                    : 720 pixels
Height                                   : 384 pixels
Display aspect ratio                     : 1.875
Frame rate                               : 23.976 fps
Color space                              : YUV
Chroma subsampling                       : 4:2:0
Bit depth                                : 8 bits
Scan type                                : Progressive
Bits/(Pixel*Frame)                       : 0.160
Stream size                              : 713 MiB (71%)
Writing library                          : x264 core 112


Audio
*****
ID                                       : 2
Format                                   : AC-3
Format/Info                              : Audio Coding 3
Mode extension                           : CM (complete main)
Muxing mode                              : Header stripping
Codec ID                                 : A_AC3
Duration                                 : 1h 36mn
Bit rate mode                            : Constant
Bit rate                                 : 384 Kbps
Channel(s)                               : 6 channels
Channel positions                        : Front: L C R, Side: L R, LFE
Sampling rate                            : 48.0 KHz
Bit depth                                : 16 bits
Compression mode                         : Lossy
Stream size                              : 265 MiB (27%)
Language                                 : Spanish


Text(subtitles)
***************
ID                                       : 3
Format                                   : UTF-8
Codec ID                                 : S_TEXT/UTF8
Codec ID/Info                            : UTF-8 Plain Text
Language                                 : ROMANiAN
Language                                 : ENGLISH

PLEASE SEED FOR AS LONG AS POSSIBLE!	




